<?xml version="1.0" encoding="utf-8"?>
<!-- Generator: Adobe Illustrator 16.0.0, SVG Export Plug-In . SVG Version: 6.00 Build 0)  -->
<!DOCTYPE svg PUBLIC "-//W3C//DTD SVG 1.1//EN" "http://www.w3.org/Graphics/SVG/1.1/DTD/svg11.dtd">
<svg version="1.1" id="Layer_1" xmlns="http://www.w3.org/2000/svg" xmlns:xlink="http://www.w3.org/1999/xlink" x="0px" y="0px"
	 width="4500px" height="1300px" viewBox="0 0 4500 1300" enable-background="new 0 0 4500 1300" xml:space="preserve">
<g>
	<path fill="#8C0000" d="M1309.075,604.663L1016.988,173.51c-3.642-5.373-9.827-8.563-16.208-8.553l-463.518,1.86
		c-6.69,0.027-12.903,3.488-16.447,9.168L252.953,605.277c-3.896,6.245-3.94,14.155-0.113,20.442l267.867,439.971
		c3.533,5.806,9.838,9.35,16.637,9.35h463.516c6.525,0,12.618-3.268,16.232-8.706l292.081-439.971
		C1313.544,619.778,1313.505,611.207,1309.075,604.663z M1259.046,600.283H893.865l-321.06-394.649l393.156-1.577L791.089,426.462
		l19.8,24.342l186.343-236.993L1259.046,600.283z M301.604,630.895H654.32l312.208,405.186H572.345l180.194-227.009l-19.246-24.981
		l-191.524,241.278L301.604,630.895z M997.241,1025.79L681.243,615.685l72.326-91.983l-19.803-24.341l-79.354,100.923H301.989
		l239.783-384.288l325.181,399.711l-74.666,94.062l19.251,24.984l82.441-103.858h365.422L997.241,1025.79z"/>
	<g>
		<path d="M1412.104,460.28h100.158c13.6,0,26.895,1.39,39.879,4.173s24.572,7.348,34.773,13.682
			c10.202,6.337,18.469,14.604,24.809,24.806c6.33,10.201,9.507,22.879,9.507,38.021c0,19.171-5.183,35.008-15.537,47.529
			c-10.359,12.52-24.339,21.409-41.958,26.662v0.928c10.5,0.925,20.315,3.638,29.441,8.113c9.114,4.484,16.996,10.284,23.648,17.389
			c6.642,7.115,11.827,15.383,15.531,24.808c3.709,9.433,5.568,19.554,5.568,30.372c0,18.243-3.791,33.232-11.36,44.979
			c-7.582,11.75-17.468,21.097-29.676,28.052c-12.218,6.956-25.974,11.824-41.269,14.607c-15.301,2.783-30.533,4.171-45.678,4.171
			h-97.838V460.28z M1451.052,599.387h53.793c9.271,0,18.316-0.616,27.127-1.854c8.805-1.232,16.762-3.782,23.877-7.653
			c7.109-3.86,12.824-9.271,17.158-16.229c4.324-6.953,6.49-16.148,6.49-27.589c0-10.202-2.012-18.467-6.023-24.808
			c-4.027-6.331-9.359-11.359-16-15.07c-6.652-3.707-14.225-6.26-22.725-7.65c-8.506-1.392-17.078-2.086-25.732-2.086h-57.965
			V599.387z M1451.052,752.406h65.848c9.576,0,19.084-1,28.52-3.014c9.424-2.008,17.924-5.253,25.496-9.74
			c7.576-4.476,13.685-10.353,18.321-17.62c4.636-7.257,6.951-16.149,6.951-26.66c0-11.434-2.245-21.019-6.724-28.75
			c-4.479-7.725-10.354-13.91-17.615-18.548c-7.271-4.637-15.615-7.882-25.041-9.738c-9.434-1.854-19.092-2.782-28.979-2.782
			h-66.777V752.406z"/>
		<path d="M1743.552,460.28h38.957v292.126h150.236v36.166h-189.193V460.28z"/>
		<path d="M2266.867,527.979c-9.892-13.289-22.104-23.257-36.633-29.908c-14.528-6.645-29.671-9.97-45.438-9.97
			c-18.245,0-35.008,3.709-50.308,11.128c-15.306,7.418-28.519,17.389-39.645,29.907c-11.131,12.52-19.789,27.055-25.975,43.589
			c-6.186,16.539-9.272,33.775-9.272,51.701c0,19.171,3.087,37.023,9.272,53.557c6.186,16.539,14.757,30.914,25.735,43.121
			c10.974,12.217,24.116,21.873,39.416,28.982c15.301,7.115,32.226,10.665,50.775,10.665c20.092,0,38.025-3.94,53.793-11.823
			c15.762-7.884,29.518-19.245,41.264-34.084l29.214,24.578c-14.838,19.784-32.688,34.312-53.559,43.584
			c-20.865,9.275-44.438,13.912-70.712,13.912c-23.496,0-45.443-4.331-65.847-12.982c-20.398-8.652-38.101-20.636-53.091-35.936
			c-14.996-15.302-26.741-33.459-35.239-54.485c-8.509-21.018-12.748-44.049-12.748-69.089c0-24.11,4.087-46.674,12.283-67.699
			c8.188-21.018,19.708-39.254,34.546-54.714c14.838-15.454,32.454-27.664,52.857-36.632c20.403-8.963,42.812-13.447,67.238-13.447
			c22.258,0,43.661,4.021,64.223,12.054c20.553,8.043,37.791,21.178,51.693,39.415L2266.867,527.979z"/>
		<path d="M2393.173,460.28h38.951v141.89h5.566l149.307-141.89h56.107l-162.292,149.772l170.173,178.52h-57.037L2437.69,621.646
			h-5.566v166.925h-38.951V460.28z"/>
		<path d="M2935.765,527.979c-9.897-13.289-22.104-23.257-36.631-29.908c-14.53-6.645-29.676-9.97-45.44-9.97
			c-18.243,0-35.008,3.709-50.308,11.128c-15.306,7.418-28.519,17.389-39.65,29.907c-11.125,12.52-19.783,27.055-25.967,43.589
			c-6.182,16.539-9.271,33.775-9.271,51.701c0,19.171,3.09,37.023,9.271,53.557c6.184,16.539,14.76,30.914,25.736,43.121
			c10.971,12.217,24.113,21.873,39.413,28.982c15.303,7.115,32.226,10.665,50.775,10.665c20.089,0,38.024-3.94,53.789-11.823
			c15.765-7.884,29.517-19.245,41.265-34.084l29.217,24.578c-14.838,19.784-32.69,34.312-53.559,43.584
			c-20.865,9.275-44.441,13.912-70.712,13.912c-23.496,0-45.443-4.331-65.847-12.982c-20.404-8.652-38.102-20.636-53.089-35.936
			c-14.998-15.302-26.743-33.459-35.247-54.485c-8.5-21.018-12.745-44.049-12.745-69.089c0-24.11,4.09-46.674,12.286-67.699
			c8.19-21.018,19.705-39.254,34.546-54.714c14.833-15.454,32.459-27.664,52.857-36.632c20.403-8.963,42.815-13.447,67.238-13.447
			c22.257,0,43.661,4.021,64.22,12.054c20.551,8.043,37.793,21.178,51.702,39.415L2935.765,527.979z"/>
		<path d="M3054.086,460.28h38.948v139.107h175.276V460.28h38.948v328.292h-38.948V635.555h-175.276v153.017h-38.948V460.28z"/>
		<path d="M3512.263,460.28h49.146l190.117,272.649h0.924V460.28h38.954v328.292h-49.15l-190.118-272.648h-0.924v272.648h-38.948
			V460.28z"/>
		<path d="M3962.973,460.28h126.123c10.816,0,22.258,1.238,34.307,3.708c12.057,2.479,24.031,6.42,35.938,11.824
			c11.898,5.412,23.336,12.448,34.312,21.1c10.975,8.658,20.637,19.091,28.98,31.3c8.354,12.214,14.996,26.278,19.938,42.196
			c4.945,15.923,7.43,33.928,7.43,54.019c0,20.1-2.484,38.102-7.43,54.019c-4.941,15.925-11.584,29.989-19.938,42.196
			c-8.344,12.217-18.006,22.648-28.98,31.3c-10.977,8.658-22.414,15.694-34.312,21.099c-11.906,5.41-23.881,9.351-35.938,11.824
			c-12.049,2.477-23.49,3.707-34.307,3.707h-126.123V460.28z M4001.916,752.406h74.195c18.854,0,36.318-2.47,52.398-7.42
			c16.068-4.942,29.973-12.592,41.729-22.953c11.746-10.353,21.018-23.57,27.828-39.646c6.785-16.069,10.191-35.391,10.191-57.961
			c0-22.562-3.406-41.885-10.191-57.96c-6.811-16.069-16.082-29.286-27.828-39.647c-11.756-10.353-25.66-18.004-41.729-22.953
			c-16.08-4.94-33.544-7.417-52.398-7.417h-74.195V752.406z"/>
		<circle fill="#8C0000" cx="3882.328" cy="615.832" r="26.437"/>
		<g>
			<circle fill="#8C0000" cx="3414.826" cy="657.574" r="26.437"/>
			<circle fill="#8C0000" cx="3414.826" cy="571.307" r="26.437"/>
		</g>
		<polygon fill="#8C0000" points="1974.966,401.164 1862.457,582.047 1901.27,582.047 2014.143,401.164 		"/>
	</g>
</g>
</svg>
