<?xml version="1.0" encoding="UTF-8"?>
<!DOCTYPE svg PUBLIC "-//W3C//DTD SVG 1.1//EN" "http://www.w3.org/Graphics/SVG/1.1/DTD/svg11.dtd">
<svg version="1.1" xmlns="http://www.w3.org/2000/svg" xmlns:xlink="http://www.w3.org/1999/xlink" x="0" y="0" width="302" height="263" viewBox="0, 0, 302, 263">
  <g id="Ebene_1">
    <g>
      <path d="M222.6,139.2 C222.6,182.941 187.141,218.4 143.4,218.4 C99.659,218.4 64.2,182.941 64.2,139.2 C64.2,95.459 99.659,60 143.4,60 C187.141,60 222.6,95.459 222.6,139.2 z" fill="#EC0A0A" display="none"/>
      <g id="FILL" display="none">
        <path d="M298.3,89.2 C298.3,98.534 290.734,106.1 281.4,106.1 C272.066,106.1 264.5,98.534 264.5,89.2 C264.5,79.866 272.066,72.3 281.4,72.3 C290.734,72.3 298.3,79.866 298.3,89.2 z" fill="#D3D3F2"/>
        <path d="M249.7,30.1 C249.7,45.012 237.612,57.1 222.7,57.1 C207.788,57.1 195.7,45.012 195.7,30.1 C195.7,15.188 207.788,3.1 222.7,3.1 C237.612,3.1 249.7,15.188 249.7,30.1 z" fill="#D3D3F2"/>
        <path d="M42.6,79.1 C42.6,88.875 34.675,96.8 24.9,96.8 C15.125,96.8 7.2,88.875 7.2,79.1 C7.2,69.325 15.125,61.4 24.9,61.4 C34.675,61.4 42.6,69.325 42.6,79.1 z" fill="#D3D3F2"/>
        <path d="M253.2,233.2 C253.2,242.534 245.634,250.1 236.3,250.1 C226.966,250.1 219.4,242.534 219.4,233.2 C219.4,223.866 226.966,216.3 236.3,216.3 C245.634,216.3 253.2,223.866 253.2,233.2 z" fill="#D3D3F2"/>
        <path d="M63.1,229.8 C63.1,246.369 49.669,259.8 33.1,259.8 C16.531,259.8 3.1,246.369 3.1,229.8 C3.1,213.231 16.531,199.8 33.1,199.8 C49.669,199.8 63.1,213.231 63.1,229.8 z" fill="#D3D3F2"/>
      </g>
      <path d="M143.4,221.5 C98,221.5 61,184.5 61,139.1 C61,93.7 98,56.7 143.4,56.7 C188.8,56.7 225.8,93.7 225.8,139.1 C225.8,184.5 188.9,221.5 143.4,221.5 z M143.4,63.1 C101.4,63.1 67.3,97.2 67.3,139.2 C67.3,181.2 101.4,215.3 143.4,215.3 C185.4,215.3 219.5,181.2 219.5,139.2 C219.5,97.2 185.4,63.1 143.4,63.1 z" fill="#2B2B47"/>
      <path d="M80.888,187.44 L84.974,192.236 L57.415,215.712 L53.329,210.916 z" fill="#2B2B47"/>
      <path d="M263.621,91.059 L265.384,97.107 L217.187,111.153 L215.424,105.105 z" fill="#2B2B47"/>
      <path d="M204.039,50.071 L209.253,53.606 L193.206,77.279 L187.991,73.744 z" fill="#2B2B47"/>
      <path d="M38.926,85.929 L72.155,105.371 L68.974,110.809 L35.745,91.366 z" fill="#2B2B47"/>
      <path d="M200.782,193.674 L229.399,220.316 L225.106,224.927 L196.489,198.285 z" fill="#2B2B47"/>
      <path d="M281.4,109.3 C270.3,109.3 261.3,100.3 261.3,89.2 C261.3,78.1 270.3,69.1 281.4,69.1 C292.5,69.1 301.5,78.1 301.5,89.2 C301.5,100.3 292.5,109.3 281.4,109.3 z M281.4,75.4 C273.8,75.4 267.6,81.6 267.6,89.2 C267.6,96.8 273.8,103 281.4,103 C289,103 295.2,96.8 295.2,89.2 C295.2,81.6 289.1,75.4 281.4,75.4 z" fill="#EC0A0A"/>
      <path d="M222.7,60.2 C206.1,60.2 192.6,46.7 192.6,30.1 C192.6,13.5 206.1,0 222.7,0 C239.3,0 252.8,13.5 252.8,30.1 C252.8,46.7 239.3,60.2 222.7,60.2 z M222.7,6.2 C209.6,6.2 198.9,16.9 198.9,30 C198.9,43.1 209.6,53.8 222.7,53.8 C235.8,53.8 246.5,43.1 246.5,30 C246.5,16.9 235.8,6.2 222.7,6.2 z" fill="#EC0A0A"/>
      <path d="M24.9,99.9 C13.4,99.9 4.1,90.6 4.1,79.1 C4.1,67.6 13.4,58.3 24.9,58.3 C36.4,58.3 45.7,67.6 45.7,79.1 C45.7,90.6 36.4,99.9 24.9,99.9 z M24.9,64.6 C16.9,64.6 10.4,71.1 10.4,79.1 C10.4,87.1 16.9,93.6 24.9,93.6 C32.9,93.6 39.4,87.1 39.4,79.1 C39.5,71.1 33,64.6 24.9,64.6 z" fill="#EC0A0A"/>
      <path d="M236.3,253.3 C225.2,253.3 216.2,244.3 216.2,233.2 C216.2,222.1 225.2,213.1 236.3,213.1 C247.4,213.1 256.4,222.1 256.4,233.2 C256.4,244.3 247.3,253.3 236.3,253.3 z M236.3,219.4 C228.7,219.4 222.5,225.6 222.5,233.2 C222.5,240.8 228.7,247 236.3,247 C243.9,247 250.1,240.8 250.1,233.2 C250.1,225.6 243.9,219.4 236.3,219.4 z" fill="#EC0A0A"/>
      <path d="M33.1,262.9 C14.8,262.9 0,248 0,229.8 C0,211.6 14.9,196.7 33.1,196.7 C51.3,196.7 66.2,211.6 66.2,229.8 C66.2,248 51.3,262.9 33.1,262.9 z M33.1,202.9 C18.3,202.9 6.2,215 6.2,229.8 C6.2,244.6 18.3,256.7 33.1,256.7 C47.9,256.7 60,244.6 60,229.8 C59.9,215 47.9,202.9 33.1,202.9 z" fill="#EC0A0A"/>
      <path d="M168,152.7 C168,163.5 160.4,171.1 147.6,172.1 L147.6,184.9 L140.5,184.9 L140.5,172 C132.7,171.1 125.1,167.7 118.9,161.6 L124.4,155 C130.3,160.8 138,163.8 144.8,163.8 C152.6,163.8 158.4,159.9 158.4,153.3 C158.4,145.7 152.3,143.2 142.6,140.2 C131,136.5 120.5,132.9 120.5,120.3 C120.5,110 127.7,102.3 140.6,101.6 L140.6,88.2 L147.7,88.2 L147.7,102 C154.1,103.1 161,106 165.7,109.7 L160.4,116.2 C154.8,112.2 147.8,110 142.6,110 C135.2,110 130.1,113.5 130.1,119.6 C130.1,126.2 136.5,128.6 145.3,131.5 C158.1,135.7 168,139.1 168,152.7 L168,152.7 z" fill="#FFFFFF" display="none"/>
    </g>
  </g>
</svg>
