<?xml version="1.0" encoding="iso-8859-1"?>
<!-- Generator: Adobe Illustrator 19.0.0, SVG Export Plug-In . SVG Version: 6.00 Build 0)  -->
<svg xmlns="http://www.w3.org/2000/svg" xmlns:xlink="http://www.w3.org/1999/xlink" version="1.1" id="Capa_1" x="0px" y="0px" viewBox="0 0 480 480" style="enable-background:new 0 0 480 480;" xml:space="preserve" width="512px" height="512px">
<g>
	<g>
		<path d="M240,296c-10.832,0-21.456,0.376-31.72,1.04C216.16,321.296,228.464,336,240,336s23.84-14.704,31.72-38.96    C261.456,296.376,250.832,296,240,296z" fill="#FFFFFF"/>
	</g>
</g>
<g>
	<g>
		<path d="M287.952,298.4c-3.155,11.087-7.926,21.648-14.16,31.344c15.288-5.769,28.856-15.337,39.424-27.8    C305.328,300.52,296.864,299.328,287.952,298.4z" fill="#FFFFFF"/>
	</g>
</g>
<g>
	<g>
		<path d="M273.792,150.256c6.234,9.696,11.005,20.257,14.16,31.344c8.912-0.928,17.376-2.12,25.264-3.544    C302.648,165.593,289.08,156.025,273.792,150.256z" fill="#FFFFFF"/>
	</g>
</g>
<g>
	<g>
		<path d="M166.784,178.056c7.888,1.424,16.352,2.616,25.264,3.544c3.155-11.087,7.926-21.648,14.16-31.344    C190.92,156.025,177.352,165.593,166.784,178.056z" fill="#FFFFFF"/>
	</g>
</g>
<g>
	<g>
		<path d="M192.048,298.4c-8.912,0.928-17.376,2.12-25.264,3.544c10.568,12.463,24.136,22.031,39.424,27.8    C199.974,320.048,195.203,309.487,192.048,298.4z" fill="#FFFFFF"/>
	</g>
</g>
<g>
	<g>
		<path d="M240,144c-11.536,0-23.84,14.704-31.72,38.96c10.264,0.664,20.888,1.04,31.72,1.04c10.832,0,21.456-0.376,31.72-1.04    C263.84,158.704,251.536,144,240,144z" fill="#FFFFFF"/>
	</g>
</g>
<g>
	<g>
		<path d="M275.88,198.728C264.304,199.568,252.248,200,240,200s-24.304-0.432-35.88-1.272c-2.256,10.959-3.573,22.09-3.936,33.272    h79.632C279.453,220.818,278.136,209.687,275.88,198.728z" fill="#FFFFFF"/>
	</g>
</g>
<g>
	<g>
		<path d="M200.184,248c0.363,11.182,1.68,22.313,3.936,33.272C215.696,280.432,227.752,280,240,280s24.304,0.432,35.88,1.272    c2.256-10.959,3.573-22.09,3.936-33.272H200.184z" fill="#FFFFFF"/>
	</g>
</g>
<g>
	<g>
		<path d="M184.192,248h-39.784c1.147,13.951,5.362,27.476,12.344,39.608c9.6-2,20.144-3.632,31.36-4.856    C185.859,271.294,184.548,259.672,184.192,248z" fill="#FFFFFF"/>
	</g>
</g>
<g>
	<g>
		<path d="M156.752,192.392c-6.982,12.132-11.197,25.657-12.344,39.608h39.784c0.356-11.672,1.667-23.294,3.92-34.752    C176.912,196.024,166.352,194.392,156.752,192.392z" fill="#FFFFFF"/>
	</g>
</g>
<g>
	<g>
		<path d="M295.808,248c-0.356,11.672-1.667,23.294-3.92,34.752c11.2,1.224,21.76,2.856,31.36,4.856    c6.982-12.132,11.197-25.657,12.344-39.608H295.808z" fill="#FFFFFF"/>
	</g>
</g>
<g>
	<g>
		<path d="M323.248,192.392c-9.6,2-20.144,3.632-31.36,4.856c2.253,11.458,3.564,23.08,3.92,34.752h39.784    C334.445,218.049,330.229,204.524,323.248,192.392z" fill="#FFFFFF"/>
	</g>
</g>
<g>
	<g>
		<path d="M88,0H8C3.582,0,0,3.582,0,8v64c0,4.418,3.582,8,8,8h32v16H8v16h80V96H56V80h32c4.418,0,8-3.582,8-8V8    C96,3.582,92.418,0,88,0z" fill="#FFFFFF"/>
	</g>
</g>
<g>
	<g>
		<path d="M472,0h-80c-4.418,0-8,3.582-8,8v64c0,4.418,3.582,8,8,8h32v16h-32v16h80V96h-32V80h32c4.418,0,8-3.582,8-8V8    C480,3.582,476.418,0,472,0z" fill="#FFFFFF"/>
	</g>
</g>
<g>
	<g>
		<path d="M88,448c4.418,0,8-3.582,8-8v-64c0-4.418-3.582-8-8-8H8c-4.418,0-8,3.582-8,8v64c0,4.418,3.582,8,8,8h32v16H0v16h96v-16    H56v-16H88z" fill="#FFFFFF"/>
	</g>
</g>
<g>
	<g>
		<path d="M472,448c4.418,0,8-3.582,8-8v-64c0-4.418-3.582-8-8-8h-80c-4.418,0-8,3.582-8,8v64c0,4.418,3.582,8,8,8h32v16h-40v16h96    v-16h-40v-16H472z" fill="#FFFFFF"/>
	</g>
</g>
<g>
	<g>
		<path d="M126.808,115.496l11.72-3.912l-5.056-15.2l-24,8c-2.393,0.785-4.271,2.663-5.056,5.056l-8,24l15.2,5.056l3.88-11.688    l22.848,22.848l11.312-11.312L126.808,115.496z" fill="#FFFFFF"/>
	</g>
</g>
<g>
	<g>
		<path d="M375.616,109.472c-0.785-2.393-2.663-4.271-5.056-5.056l-24-8l-5.056,15.2l11.72,3.912l-22.848,22.848l11.28,11.28    l22.848-22.848l3.912,11.72l15.2-5.056L375.616,109.472z" fill="#FFFFFF"/>
	</g>
</g>
<g>
	<g>
		<path d="M149.624,341.624l-11.28-11.28l-22.848,22.848l-3.912-11.72l-15.2,5.056l8,24c0.785,2.393,2.662,4.271,5.056,5.056l24,8    l5.056-15.2l-11.72-3.912L149.624,341.624z" fill="#FFFFFF"/>
	</g>
</g>
<g>
	<g>
		<path d="M368.384,341.504l-3.88,11.688l-22.848-22.848l-11.312,11.312l22.848,22.848l-11.72,3.912l5.056,15.2l24-8    c2.393-0.785,4.271-2.662,5.056-5.056l8-24L368.384,341.504z" fill="#FFFFFF"/>
	</g>
</g>
<g>
	<g>
		<rect x="232" y="32" width="16" height="64" fill="#FFFFFF"/>
	</g>
</g>
<g>
	<g>
		<rect x="232" width="16" height="16" fill="#FFFFFF"/>
	</g>
</g>
<g>
	<g>
		<rect x="268.686" y="95.997" transform="matrix(0.7071 -0.7071 0.7071 0.7071 8.4729 228.4487)" width="22.624" height="16" fill="#FFFFFF"/>
	</g>
</g>
<g>
	<g>
		<rect x="192.005" y="92.685" transform="matrix(0.7071 -0.7071 0.7071 0.7071 -14.9572 171.885)" width="16" height="22.624" fill="#FFFFFF"/>
	</g>
</g>
<g>
	<g>
		<rect x="232" y="384" width="16" height="64" fill="#FFFFFF"/>
	</g>
</g>
<g>
	<g>
		<rect x="232" y="464" width="16" height="16" fill="#FFFFFF"/>
	</g>
</g>
<g>
	<g>
		<rect x="272.004" y="364.691" transform="matrix(0.7071 -0.7071 0.7071 0.7071 -183.8628 308.1211)" width="16" height="22.624" fill="#FFFFFF"/>
	</g>
</g>
<g>
	<g>
		<rect x="193.522" y="365.996" transform="matrix(0.7071 -0.7071 0.7071 0.7071 -205.2891 252.3805)" width="16.968" height="16" fill="#FFFFFF"/>
	</g>
</g>
<g>
	<g>
		<rect x="384" y="232" width="64" height="16" fill="#FFFFFF"/>
	</g>
</g>
<g>
	<g>
		<rect x="464" y="232" width="16" height="16" fill="#FFFFFF"/>
	</g>
</g>
<g>
	<g>
		<rect x="364.691" y="191.997" transform="matrix(0.7071 -0.7071 0.7071 0.7071 -31.2901 324.4526)" width="22.624" height="16" fill="#FFFFFF"/>
	</g>
</g>
<g>
	<g>
		<rect x="368.004" y="268.645" transform="matrix(0.7071 -0.7071 0.7071 0.7071 -87.8309 347.8724)" width="16" height="22.624" fill="#FFFFFF"/>
	</g>
</g>
<g>
	<g>
		<rect x="32" y="232" width="64" height="16" fill="#FFFFFF"/>
	</g>
</g>
<g>
	<g>
		<rect y="232" width="16" height="16" fill="#FFFFFF"/>
	</g>
</g>
<g>
	<g>
		<rect x="96.005" y="188.69" transform="matrix(0.7071 -0.7071 0.7071 0.7071 -110.9606 132.1214)" width="16" height="22.624" fill="#FFFFFF"/>
	</g>
</g>
<g>
	<g>
		<rect x="92.686" y="272.003" transform="matrix(0.7071 -0.7071 0.7071 0.7071 -167.5318 155.5481)" width="22.624" height="16" fill="#FFFFFF"/>
	</g>
</g>
<g>
</g>
<g>
</g>
<g>
</g>
<g>
</g>
<g>
</g>
<g>
</g>
<g>
</g>
<g>
</g>
<g>
</g>
<g>
</g>
<g>
</g>
<g>
</g>
<g>
</g>
<g>
</g>
<g>
</g>
</svg>
