<?xml version="1.0" encoding="iso-8859-1"?>
<!-- Generator: Adobe Illustrator 19.0.0, SVG Export Plug-In . SVG Version: 6.00 Build 0)  -->
<svg xmlns="http://www.w3.org/2000/svg" xmlns:xlink="http://www.w3.org/1999/xlink" version="1.1" id="Capa_1" x="0px" y="0px" viewBox="0 0 480.2 480.2" style="enable-background:new 0 0 480.2 480.2;" xml:space="preserve" width="512px" height="512px">
<g>
	<g>
		<path d="M71.82,53.48c11.863-13.1,10.859-33.337-2.241-45.199c-13.1-11.863-33.337-10.86-45.199,2.241    c-11.04,12.192-11.04,30.767,0,42.959C9.156,62.281-0.128,78.616,0.1,96.2v40c0,4.418,3.582,8,8,8h80c4.418,0,8-3.582,8-8v-40    C96.328,78.616,87.044,62.281,71.82,53.48z M48.1,16.2c8.837,0,16,7.163,16,16s-7.163,16-16,16s-16-7.163-16-16    S39.263,16.2,48.1,16.2z M80.1,96.2v32h-64v-32c0-1.304,0.368-32,32-32c16.997-0.676,31.324,12.554,32,29.551    C80.132,94.567,80.132,95.384,80.1,96.2z" fill="#FFFFFF"/>
	</g>
</g>
<g>
	<g>
		<rect x="40.1" y="80.2" width="16" height="32" fill="#FFFFFF"/>
	</g>
</g>
<g>
	<g>
		<path d="M455.82,389.48c11.863-13.1,10.859-33.337-2.241-45.199c-13.1-11.863-33.337-10.859-45.199,2.241    c-11.04,12.192-11.04,30.767,0,42.959c-15.224,8.801-24.508,25.137-24.28,42.72v40c0,4.418,3.582,8,8,8h80c4.418,0,8-3.582,8-8    v-40C480.328,414.616,471.044,398.281,455.82,389.48z M432.1,352.2c8.837,0,16,7.163,16,16s-7.163,16-16,16s-16-7.163-16-16    S423.263,352.2,432.1,352.2z M464.1,432.2v32h-64v-32c0-1.304,0.368-32,32-32c16.997-0.676,31.324,12.554,32,29.551    C464.132,430.567,464.132,431.384,464.1,432.2z" fill="#FFFFFF"/>
	</g>
</g>
<g>
	<g>
		<rect x="424.1" y="416.2" width="16" height="32" fill="#FFFFFF"/>
	</g>
</g>
<g>
	<g>
		<path d="M263.82,197.48c11.863-13.1,10.859-33.337-2.241-45.199c-13.1-11.863-33.337-10.86-45.199,2.241    c-11.04,12.192-11.04,30.767,0,42.959c-15.224,8.801-24.508,25.137-24.28,42.72v40c0,4.418,3.582,8,8,8h80c4.418,0,8-3.582,8-8    v-40C288.328,222.616,279.044,206.281,263.82,197.48z M240.1,160.2c8.837,0,16,7.163,16,16s-7.163,16-16,16s-16-7.163-16-16    S231.263,160.2,240.1,160.2z M272.1,240.2v32h-64v-32c0-1.304,0.368-32,32-32c16.997-0.676,31.324,12.554,32,29.551    C272.132,238.567,272.132,239.384,272.1,240.2z" fill="#FFFFFF"/>
	</g>
</g>
<g>
	<g>
		<rect x="232.1" y="224.2" width="16" height="32" fill="#FFFFFF"/>
	</g>
</g>
<g>
	<g>
		<rect x="320.1" y="64.2" width="112" height="16" fill="#FFFFFF"/>
	</g>
</g>
<g>
	<g>
		<rect x="360.1" y="32.2" width="88" height="16" fill="#FFFFFF"/>
	</g>
</g>
<g>
	<g>
		<path d="M472.1,0.2h-176c-4.418,0-8,3.582-8,8v96c0,4.418,3.582,8,8,8h108.688l21.656,21.656c3.124,3.123,8.188,3.123,11.312,0    l21.656-21.656H472.1c4.418,0,8-3.582,8-8v-96C480.1,3.781,476.518,0.2,472.1,0.2z M464.1,96.2h-8    c-2.122,0-4.156,0.844-5.656,2.344L432.1,116.888l-18.344-18.344c-1.5-1.5-3.534-2.344-5.656-2.344h-104v-80h160V96.2z" fill="#FFFFFF"/>
	</g>
</g>
<g>
	<g>
		<rect x="32.1" y="432.2" width="112" height="16" fill="#FFFFFF"/>
	</g>
</g>
<g>
	<g>
		<rect x="72.1" y="400.2" width="88" height="16" fill="#FFFFFF"/>
	</g>
</g>
<g>
	<g>
		<path d="M184.1,368.2H75.412l-21.656-21.656c-3.124-3.123-8.188-3.123-11.312,0L20.788,368.2H8.1c-4.418,0-8,3.582-8,8v96    c0,4.418,3.582,8,8,8h176c4.418,0,8-3.582,8-8v-96C192.1,371.781,188.518,368.2,184.1,368.2z M176.1,464.2h-160v-80h8    c2.122,0,4.156-0.844,5.656-2.344L48.1,363.512l18.344,18.344c1.5,1.5,3.534,2.344,5.656,2.344h104V464.2z" fill="#FFFFFF"/>
	</g>
</g>
<g>
	<g>
		<rect x="328.1" y="32.2" width="16" height="16" fill="#FFFFFF"/>
	</g>
</g>
<g>
	<g>
		<rect x="40.1" y="400.2" width="16" height="16" fill="#FFFFFF"/>
	</g>
</g>
<g>
	<g>
		<rect x="216.1" y="424.2" width="16" height="16" fill="#FFFFFF"/>
	</g>
</g>
<g>
	<g>
		<rect x="248.1" y="424.2" width="16" height="16" fill="#FFFFFF"/>
	</g>
</g>
<g>
	<g>
		<rect x="280.1" y="424.2" width="16" height="16" fill="#FFFFFF"/>
	</g>
</g>
<g>
	<g>
		<rect x="312.1" y="424.2" width="16" height="16" fill="#FFFFFF"/>
	</g>
</g>
<g>
	<g>
		<rect x="344.1" y="424.2" width="16" height="16" fill="#FFFFFF"/>
	</g>
</g>
<g>
	<g>
		<rect x="424.1" y="296.2" width="16" height="16" fill="#FFFFFF"/>
	</g>
</g>
<g>
	<g>
		<rect x="424.1" y="264.2" width="16" height="16" fill="#FFFFFF"/>
	</g>
</g>
<g>
	<g>
		<rect x="424.1" y="232.2" width="16" height="16" fill="#FFFFFF"/>
	</g>
</g>
<g>
	<g>
		<rect x="424.1" y="200.2" width="16" height="16" fill="#FFFFFF"/>
	</g>
</g>
<g>
	<g>
		<rect x="424.1" y="168.2" width="16" height="16" fill="#FFFFFF"/>
	</g>
</g>
<g>
	<g>
		<rect x="40.1" y="296.2" width="16" height="16" fill="#FFFFFF"/>
	</g>
</g>
<g>
	<g>
		<rect x="40.1" y="264.2" width="16" height="16" fill="#FFFFFF"/>
	</g>
</g>
<g>
	<g>
		<rect x="40.1" y="232.2" width="16" height="16" fill="#FFFFFF"/>
	</g>
</g>
<g>
	<g>
		<rect x="80.1" y="232.2" width="16" height="16" fill="#FFFFFF"/>
	</g>
</g>
<g>
	<g>
		<rect x="112.1" y="232.2" width="16" height="16" fill="#FFFFFF"/>
	</g>
</g>
<g>
	<g>
		<rect x="144.1" y="232.2" width="16" height="16" fill="#FFFFFF"/>
	</g>
</g>
<g>
	<g>
		<rect x="320.1" y="232.2" width="16" height="16" fill="#FFFFFF"/>
	</g>
</g>
<g>
	<g>
		<rect x="352.1" y="232.2" width="16" height="16" fill="#FFFFFF"/>
	</g>
</g>
<g>
	<g>
		<rect x="384.1" y="232.2" width="16" height="16" fill="#FFFFFF"/>
	</g>
</g>
<g>
	<g>
		<rect x="40.1" y="200.2" width="16" height="16" fill="#FFFFFF"/>
	</g>
</g>
<g>
	<g>
		<rect x="40.1" y="168.2" width="16" height="16" fill="#FFFFFF"/>
	</g>
</g>
<g>
	<g>
		<rect x="112.1" y="40.2" width="16" height="16" fill="#FFFFFF"/>
	</g>
</g>
<g>
	<g>
		<rect x="144.1" y="40.2" width="16" height="16" fill="#FFFFFF"/>
	</g>
</g>
<g>
	<g>
		<rect x="176.1" y="40.2" width="16" height="16" fill="#FFFFFF"/>
	</g>
</g>
<g>
	<g>
		<rect x="208.1" y="40.2" width="16" height="16" fill="#FFFFFF"/>
	</g>
</g>
<g>
	<g>
		<rect x="240.1" y="40.2" width="16" height="16" fill="#FFFFFF"/>
	</g>
</g>
<g>
</g>
<g>
</g>
<g>
</g>
<g>
</g>
<g>
</g>
<g>
</g>
<g>
</g>
<g>
</g>
<g>
</g>
<g>
</g>
<g>
</g>
<g>
</g>
<g>
</g>
<g>
</g>
<g>
</g>
</svg>
