<?xml version="1.0" encoding="iso-8859-1"?>
<!-- Generator: Adobe Illustrator 19.0.0, SVG Export Plug-In . SVG Version: 6.00 Build 0)  -->
<svg xmlns="http://www.w3.org/2000/svg" xmlns:xlink="http://www.w3.org/1999/xlink" version="1.1" id="Capa_1" x="0px" y="0px" viewBox="0 0 512 512" style="enable-background:new 0 0 512 512;" xml:space="preserve" width="512px" height="512px">
<g>
	<g>
		<path d="M445.433,248.836c4.138,0,7.492-3.353,7.492-7.492V73.599h51.123c4.139,0,7.492-3.354,7.492-7.492V7.492    c0-4.138-3.353-7.492-7.492-7.492h-58.615c-4.139,0-7.492,3.354-7.492,7.492v51.123H74.059V7.492C74.059,3.354,70.706,0,66.567,0    H7.952C3.814,0,0.461,3.354,0.461,7.492v58.615c0,4.138,3.353,7.492,7.492,7.492h51.123v17.889c0,4.139,3.353,7.492,7.492,7.492    c4.139,0,7.492-3.353,7.492-7.492V73.599h60.744v60.973H74.059v-13.117c0-4.139-3.353-7.492-7.492-7.492    c-4.139,0-7.492,3.353-7.492,7.492v20.609v75.958v75.957v22.995c0,4.138,3.353,7.492,7.492,7.492c4.138,0,7.492-3.353,7.492-7.492    V301.47h60.744v60.973H74.059V346.94c0-4.138-3.353-7.492-7.492-7.492c-4.139,0-7.492,3.353-7.492,7.492v91.46H7.952    c-4.138,0-7.492,3.353-7.492,7.492v58.616c0,4.139,3.353,7.492,7.492,7.492h58.615c4.139,0,7.492-3.353,7.492-7.492v-51.124    h363.882v51.124c0,4.139,3.353,7.492,7.492,7.492h58.615c4.139,0,7.492-3.353,7.492-7.492v-58.616    c0-4.139-3.353-7.492-7.492-7.492h-51.123V271.312c0-4.139-3.353-7.492-7.492-7.492c-4.139,0-7.492,3.353-7.492,7.492v15.174    h-60.744v-60.973h60.744v15.832C437.941,245.483,441.294,248.836,445.433,248.836z M452.925,14.984h43.631v43.631h-43.631V14.984z     M59.075,58.615H15.444V14.984h43.631V58.615z M59.075,497.016H15.444v-43.632h43.631V497.016z M134.803,438.401H74.059v-60.973    h60.744V438.401z M74.058,210.53v-60.974h60.744v60.974H74.058z M134.803,286.487H74.059v-60.973h60.744V286.487z     M452.925,453.384h43.631v43.632h-43.631V453.384z M210.53,438.401h-60.514v-60.973h60.514V438.401z M210.53,362.444h-60.514    V301.47h60.514V362.444z M210.53,286.487h-60.514v-60.973h60.514V286.487z M210.53,210.53h-60.514v-60.974h60.514V210.53z     M210.53,134.572h-60.514V73.599h60.514V134.572z M286.256,438.401h-60.513v-60.973h60.513V438.401z M286.256,362.444h-60.513    V301.47h60.513V362.444z M286.256,286.487h-60.513v-60.973h60.513V286.487z M286.256,210.53h-60.513v-60.974h60.513V210.53z     M286.256,134.572h-60.513V73.599h60.513V134.572z M361.984,438.401H301.47v-60.973h60.514V438.401z M361.984,362.444H301.47    V301.47h60.514V362.444z M361.984,286.487H301.47v-60.973h60.514V286.487z M361.984,210.53H301.47v-60.974h60.514V210.53z     M361.984,134.572H301.47V73.599h60.514V134.572z M437.941,438.401h-60.744v-60.973h60.744V438.401z M437.941,301.47v60.973    h-60.744V301.47H437.941z M377.197,73.599h60.744v60.973h-60.744V73.599z M377.197,210.53L377.197,210.53v-60.974h60.744v60.974    H377.197z" fill="#FFFFFF"/>
	</g>
</g>
<g>
</g>
<g>
</g>
<g>
</g>
<g>
</g>
<g>
</g>
<g>
</g>
<g>
</g>
<g>
</g>
<g>
</g>
<g>
</g>
<g>
</g>
<g>
</g>
<g>
</g>
<g>
</g>
<g>
</g>
</svg>
